<svg class="scrollnav-mark" fill="currentColor" height="1.2em" width="1.2em" viewBox="0 0 24 24" xmlns="http://www.w3.org/2000/svg"><path d="m8.45810435 1.21816105c-.98829768-.35971094-2.08107458.1498593-2.44078552 1.13815698l-4.79915778 13.18557767c-.35971094.9882976.1498593 2.0810745 1.13815698 2.4407855l13.18557767 4.7991577c.9882976.359711 2.0810745-.1498593 2.4407855-1.1381569l4.7991577-13.18557765c.359711-.98829768-.1498593-2.08107458-1.1381569-2.44078552zm.37707668-1.03600967 13.18557767 4.79915778c1.56047.56796464 2.3650546 2.29340185 1.7970899 3.85387187l-4.7991578 13.18557767c-.5679646 1.56047-2.2934018 2.3650546-3.8538718 1.7970899l-13.18557765-4.7991578c-1.56047002-.5679646-2.36505461-2.2934018-1.79708997-3.8538718l4.79915778-13.18557765c.56796464-1.56047002 2.29340185-2.36505461 3.85387187-1.79708997zm7.70586987 16.35889952c-2.4374571 2.4374572-6.389356 2.4374572-8.82681315 0-2.43745715-2.4374571-2.43745715-6.389356 0-8.82681315s6.38935605-2.43745715 8.82681315 0c2.4374572 2.43745715 2.4374572 6.38935605 0 8.82681315zm-.8024375-.8024375c1.9942831-1.9942832 1.9942831-5.227655 0-7.22193809-1.9942832-1.99428312-5.227655-1.99428312-7.22193809 0-1.99428312 1.99428309-1.99428312 5.22765489 0 7.22193809 1.99428309 1.9942831 5.22765489 1.9942831 7.22193809 0zm-3.103463-7.26705736 1.7011676 3.40233526c.0798707.1597412.0798707.3477648 0 .5075061l-1.7011676 3.4023352c-.209104.418208-.8059081.418208-1.0150121 0l-1.70116767-3.4023352c-.07987062-.1597413-.07987062-.3477649 0-.5075061l1.70116767-3.40233526c.209104-.418208.8059081-.418208 1.0150121 0zm-1.5742911 3.65608826 1.066785 2.1335701 1.0667851-2.1335701-1.0667851-2.13357004z"/></svg>
