<svg height="72" viewBox="0 0 72 72" width="72" xmlns="http://www.w3.org/2000/svg"><path d="m38.25 33.1323017c5.5207256.8428839 9.75 5.6113911 9.75 11.3676983 0 6.3512746-5.1487254 11.5-11.5 11.5s-11.5-5.1487254-11.5-11.5c0-5.7563072 4.2292744-10.5248144 9.75-11.3676983v-11.3823017c0-.9664983.7835017-1.75 1.75-1.75s1.75.7835017 1.75 1.75zm30.2036881 4.6176983h-4.7036881c-.9664983 0-1.75-.7835017-1.75-1.75s.7835017-1.75 1.75-1.75h4.7036881c-.4084045-7.6971151-3.4949409-14.6837635-8.3448192-20.0451604l-3.3965583 3.3965583c-.6834175.6834175-1.7914562.6834175-2.4748737 0s-.6834175-1.7914562 0-2.4748737l3.3879208-3.3879209c-5.2216575-4.65759769-11.9565048-7.65463744-19.3753577-8.16193512v4.67333182c0 .96649831-.7835017 1.75-1.75 1.75s-1.75-.78350169-1.75-1.75v-4.72640403c-7.853732.29700444-14.9939942 3.38084614-20.4604001 8.29113023l3.311798 3.311798c.6834175.6834175.6834175 1.7914562 0 2.4748737s-1.7914562.6834175-2.4748737 0l-3.311798-3.311798c-4.80587946 5.3501767-7.86216006 12.303786-8.26841431 19.9604001h4.95368811c.96649831 0 1.75.7835017 1.75 1.75s-.78350169 1.75-1.75 1.75h-4.95368811c.90920023 17.1355631 15.09153311 30.75 32.45368811 30.75s31.5444879-13.6144369 32.4536881-30.75zm-32.4536881 34.25c-19.882251 0-36-16.117749-36-36s16.117749-36 36-36 36 16.117749 36 36-16.117749 36-36 36zm.5-19.5c4.418278 0 8-3.581722 8-8s-3.581722-8-8-8-8 3.581722-8 8 3.581722 8 8 8z" fill="#eda640"/></svg>