<svg height="72" viewBox="0 0 76 72" width="76" xmlns="http://www.w3.org/2000/svg"><path d="m72 66.5874c0 .999-.8154 1.8126-1.8072 1.8126h-64.7856c-1.0008 0-1.8072-.8064-1.8072-1.8126v-39.5874-7.2-1.8h5.4 10.8 5.4 5.4 22.608 18.792v9zm-66.5928-62.9874h3.5928 10.8 5.4 5.4 39.5928c.9954 0 1.7982.801 1.8054 1.8 0 .0036.0018.0072.0018.0126v8.9874h-41.4-5.4-5.4-10.8-5.4v-8.9874c0-.0054.0018-.009.0018-.0126.0072-.9918.8172-1.8 1.8054-1.8zm70.191 1.8c0 .0036.0018.009.0018.0126v21.5874 39.5874c0 2.9898-2.43 5.4126-5.4072 5.4126h-64.7856c-2.9862 0-5.4072-2.4174-5.4072-5.4126v-39.5874-7.2-14.3874c0-.0036.0018-.009.0018-.0126.0054-2.3454 1.5138-4.3218 3.5982-5.067.567-.2034 1.17-.333 1.8072-.333h3.5928 10.8 5.4 5.4 39.5928c2.9826 0 5.3982 2.4102 5.4054 5.4zm-66.5982 5.39964c.9954 0 1.8-.8046 1.8-1.8s-.8046-1.8-1.8-1.8-1.8.8046-1.8 1.8.8046 1.8 1.8 1.8zm5.4 0c.9954 0 1.8-.8046 1.8-1.8s-.8046-1.8-1.8-1.8-1.8.8046-1.8 1.8.8046 1.8 1.8 1.8zm5.4 0c.9954 0 1.8-.8046 1.8-1.8s-.8046-1.8-1.8-1.8-1.8.8046-1.8 1.8.8046 1.8 1.8 1.8zm33.6726 20.3274c-.0792-.0774-.1782-.1152-.2646-.1764-.702-.4842-1.656-.45-2.2806.1764-.7038.7038-.7038 1.8414 0 2.5452l2.2806 2.2806 5.346 5.346-5.346 5.3496-2.2806 2.2806c-.7038.7002-.7038 1.8414 0 2.5452.6246.6228 1.5786.6624 2.2806.1746.0864-.0594.1854-.0954.2646-.1746l8.901-8.9028c.7038-.702.7038-1.8414 0-2.5452zm-10.40976-5.80428c-.5796-.2268-1.1862-.1044-1.6632.225-.2844.1962-.5346.45-.6696.7956l-.2556.657-6.075 15.5196-5.4756 13.9968c-.3636.9252.0936 1.9692 1.0206 2.331s1.971-.0954 2.3328-1.0188l2.1222-5.4288 7.0002-17.8902 2.682-6.8544c.0846-.216.1152-.4374.1152-.6552 0-.72-.423-1.4004-1.134-1.6776zm-18.18972 8.34948c.7038-.7038.7038-1.8414 0-2.5452s-1.8414-.7038-2.5452 0l-2.5272 2.5272-6.3738 6.372c-.7038.7038-.7038 1.8432 0 2.5452l6.3738 6.3738 2.5272 2.529c.7038.702 1.8414.702 2.5452 0 .7038-.7038.7038-1.845 0-2.5452l-5.0724-5.0742-2.556-2.556 2.556-2.5542z" fill="#35bba1" fill-rule="evenodd"/></svg>