<svg height="72" viewBox="0 0 72 72" width="72" xmlns="http://www.w3.org/2000/svg"><path d="m59.8927933 66.0996645 6.3053929-6.3037051 1.8919554 8.1956605zm-21.4562257-20.600542-2.3864629-2.386463-7.1610765-7.1610765-2.3864629-2.3864629-14.7727794-14.7727793 7.1593888-7.1610765 14.7727793 14.7727793 2.3881507 2.3864629 7.1593888 7.1610765 2.3864629 2.386463 18.6427648 18.6427648-7.1593888 7.1610765zm-23.6570373 18.8824237-5.65561335 2.4235932-3.92905636-3.9290563 2.42528092-5.6589889 18.88073599-18.8790482 7.1610765 7.1610765zm-10.2209473-52.7604084c-.64809177-.6497795-.64640403-1.71980598.01012643-2.37802419l4.77292585-4.77292584c.66328142-.66159368 1.72318152-.66328142 2.37802422-.01012644l4.7830523 4.78305228-7.16107652 7.16107649zm51.5317344-2.87084397 7.1610765 7.15938877-17.6554375 17.6554375-7.1593888-7.1627642zm8.9534553-5.37376092c.0050632-.00337548 3.5712557 3.5763189 3.5712557 3.5763189.0101264.01012644-4.7661749 4.77967679-4.7661749 4.77967679l-3.5796944-3.57969437zm3.9695621 53.60427789-21.0292277-21.0292278 14.0284864-14.0284864 1.3147487 1.3164364c.6599059.659906.6599059 1.7282447-.0033755 2.3915262l-6.6226878 6.621c-.6582182.6599059-.6582182 1.7282447 0 2.3864629.659906.659906 1.7282447.659906 2.3864629 0l6.6226878-6.6193123c1.9814056-1.9814056 1.9830933-5.1881096.0050632-7.1661397l-1.3164364-1.3164364 1.2388004-1.2404882 2.386463-2.3864629-1.7890034-1.7890033 4.7763014-4.77630135c1.3248751-1.32825058 1.3113731-3.45648944-.0101265-4.7796768l-3.5661925-3.56619247c-1.3350015-1.33500154-3.4615526-1.32487511-4.777989-.0084387l-4.7763013 4.77630133-1.7906911-1.79069106-2.3864629 2.38646292-17.6537498 17.65374973-21.9439823-21.94229449c-1.9763423-1.97465461-5.17291996-1.96790365-7.15095005.01012643l-4.77292584 4.77292585c-1.97127914 1.97127913-1.98309331 5.17967091-.01012644 7.15095011l4.78305228 4.7830522.45568953.4556896 1.9307734 1.9324611 14.77277932 14.7727793-19.34148875 19.3414888-3.57969439 8.354308 2.38646293 2.3864629-3.57969439 3.5796944 2.38646292 2.3864629 3.57969439-3.5796944 2.38815066 2.3864629 8.35430793-3.5796943 19.3414888-19.3414888 18.6410771 18.6427648 2.3864629 2.3864629 12.2259812 2.8218996c1.8025052.4151838 2.9501677-.7156013 2.5299207-2.5316085z" fill="#9035bb" fill-rule="evenodd"/></svg>